<?xml version="1.0" encoding="iso-8859-1"?>
<!-- Generator: Adobe Illustrator 19.0.0, SVG Export Plug-In . SVG Version: 6.00 Build 0)  -->
<svg version="1.1" id="Layer_1" xmlns="http://www.w3.org/2000/svg" xmlns:xlink="http://www.w3.org/1999/xlink" x="0px" y="0px"
	 viewBox="0 0 511.994 511.994" style="enable-background:new 0 0 511.994 511.994;" xml:space="preserve">
<path style="fill:#EAC6BB;" d="M391.244,59.567L344.12,39.38l-59.858-21.328l-35.999-8.828l-56.201,8.828l-69.577,73.576
	c0,0-18.187,56.279-18.187,59.42s0,54.749,0,54.749l-12.844,13.812c0,0,17.625,129.732,17.234,182.011l13.796,19.406l12.797,40.107
	l47.233,35h42.749l48.155-26l30.843-38.436l23.984-58.046l26.546-45.78l15.452-21.344l23-71.232l17-66.107v-67.03L391.244,59.567z"
	/>
<g>
	<path style="fill:#DBADA2;" d="M210.373,511.994c-7.109,0-14.28-0.859-21.452-2.594c-48.687-11.75-86.186-62.124-80.232-107.779
		c0.766-5.844,6.125-9.953,11.952-9.203c5.844,0.766,9.953,6.125,9.203,11.953c-2.125,16.281,3.578,34.905,15.656,51.139
		c12.359,16.625,30.015,28.703,48.421,33.156c21.14,5.094,42.53,0.172,61.873-14.266c24.515-18.312,45.265-50.779,61.655-96.514
		l0.484-1.344l0.812-1.155c0.266-0.391,27.327-39.374,50.373-91.076c37.844-84.841,36.203-138.231,28.188-168.088
		c-4.297-15.985-11.641-30.203-21.812-42.234c-11.219-13.281-26.249-24.359-44.686-32.953c-32.672-15.234-63.28-21.671-90.968-19.14
		c-23.968,2.188-45.811,11.094-64.92,26.468c-23.796,19.14-43.187,48.593-54.624,82.92c-10.015,30.108-13.015,61.374-8.015,83.654
		c1.281,5.749-2.328,11.452-8.078,12.749c-5.75,1.281-11.453-2.344-12.75-8.078c-5.797-25.904-2.578-61.436,8.609-95.06
		c12.703-38.171,34.546-71.139,61.482-92.81c33.453-26.906,91.514-50.468,178.277-10.031c41.093,19.156,67.374,49.093,78.092,89.014
		c7.219,26.858,7.281,58.311,0.188,93.466c-5.577,27.593-15.546,57.592-29.655,89.185c-21.891,48.968-46.53,85.903-51.39,93.028
		c-17.765,49.062-40.812,84.404-68.514,105.092C250.372,505.072,230.576,511.994,210.373,511.994z"/>
	<path style="fill:#DBADA2;" d="M364.353,128.3c-16.577-33.53-39.998-54.889-69.623-63.467
		c-53.046-15.39-105.997,16.328-108.216,17.687c-5.031,3.062-6.625,9.625-3.562,14.656c3.062,5.031,9.625,6.625,14.656,3.562
		c0.468-0.281,47.061-28.218,91.185-15.421c23.641,6.844,42.625,24.484,56.437,52.437c1.859,3.749,5.641,5.937,9.562,5.937
		c1.593,0,3.202-0.359,4.718-1.109C364.791,139.971,366.963,133.581,364.353,128.3z"/>
	<path style="fill:#DBADA2;" d="M257.123,169.518c-31.312-6.297-61.937,16.094-63.218,17.047c-4.734,3.5-5.719,10.188-2.219,14.921
		c3.516,4.719,10.202,5.719,14.921,2.203c0.25-0.172,24.531-17.64,46.312-13.265c10.062,2.031,18.156,8.405,24.733,19.499
		c14.062,23.702,3.547,39.046-19.608,68.779c-7.953,10.203-16.969,21.78-25.296,35.077c-15.781,25.25-18.547,47.546-20.375,62.295
		c-0.656,5.297-1.547,12.516-2.812,14.234c-0.25,0.094-0.953,0.266-2.453,0.25c-3.812-0.031-6.953-1.531-9.874-4.672
		c-7.344-7.953-12.438-25.483-14.328-49.357c-1.531-19.5-0.422-36.453-0.406-36.625c0.391-5.874-4.047-10.968-9.922-11.374
		c-5.875-0.391-10.953,4.047-11.359,9.921c-0.062,0.734-1.234,18.469,0.406,39.469c2.312,29.608,9.016,50.607,19.938,62.436
		c6.891,7.438,15.641,11.438,25.327,11.531c0.125,0,0.25,0,0.375,0c12.484,0,18.5-6.484,21.344-11.953
		c3.016-5.812,3.906-12.953,4.938-21.234c1.688-13.655,4.015-32.357,17.296-53.607c7.734-12.359,16.016-23,24.031-33.28
		c11.702-15.015,21.812-27.999,26.999-42.342c6.141-16.938,4.219-33.421-5.859-50.437
		C286.309,182.69,273.216,172.752,257.123,169.518z"/>
</g>
<path style="fill:#434A54;" d="M511.96,10.694c0-5.891-4.766-10.672-10.656-10.672c-2.953,0-5.609,1.203-7.546,3.125l0,0
	L3.159,493.76l0,0c-1.938,1.922-3.125,4.594-3.125,7.531c0,5.891,4.766,10.672,10.656,10.672c2.953,0,5.609-1.203,7.547-3.125l0,0
	L508.835,18.241v-0.016C510.772,16.303,511.96,13.631,511.96,10.694z"/>
<g>
</g>
<g>
</g>
<g>
</g>
<g>
</g>
<g>
</g>
<g>
</g>
<g>
</g>
<g>
</g>
<g>
</g>
<g>
</g>
<g>
</g>
<g>
</g>
<g>
</g>
<g>
</g>
<g>
</g>
</svg>
