<svg width="289" height="342" viewBox="0 0 289 342" fill="none" xmlns="http://www.w3.org/2000/svg">
<path d="M29.9656 28.564C32.0403 22.0221 35.6208 13.372 40.8744 7.36549C46.128 1.35897 53.0882 -1.98729 61.9056 2.09513C72.7307 7.1145 74.5042 18.5754 72.7977 30.7558C71.0911 42.9361 65.9379 55.8526 62.8928 63.5657C58.7992 74.006 54.6833 84.4407 50.5451 94.8699C46.4069 105.299 42.252 115.717 38.0803 126.124C35.1579 133.463 32.2132 140.808 29.2462 148.159C26.2792 155.51 23.3233 162.849 20.3786 170.177L15.4597 182.358L10.5239 194.555C9.62043 196.78 8.71697 199.005 7.83021 201.247L5.11976 207.94C4.43378 209.613 3.16226 211.872 2.04126 214.164C0.937971 216.141 0.243742 218.32 0 220.572V132.582C2.34237 123.224 4.84087 113.704 7.49556 104.022C10.1503 94.3401 12.9946 84.5021 16.0286 74.508C17.7017 68.7357 19.5086 62.7961 21.2988 56.7394C23.0891 50.6827 24.9129 44.6929 26.8202 38.8035C27.3389 37.1304 27.8576 35.4572 28.3762 33.7841C28.8949 32.111 29.4135 30.3208 29.9656 28.564Z" fill="#E9CF81"/>
<path d="M0 220.555C23.2732 180.4 43.8693 145.716 59.9982 119.381C76.1271 93.0462 87.722 74.9932 93.009 68.033C97.123 62.6533 102.433 58.3055 108.519 55.334C114.776 52.4562 121.569 51.8037 127.392 55.9865C133.214 60.1693 134.62 66.7949 134.084 73.8053C133.45 80.5928 131.668 87.2233 128.814 93.4143C122.439 107.72 111.447 124.116 101.425 137.702C91.4028 151.288 82.3177 162.012 79.7913 164.991L39.9375 212.106C26.6194 227.8 13.3069 243.505 0 259.221V220.555Z" fill="#E9CF81"/>
<path d="M0 259.238C0 259.238 2.57657 245.853 16.4802 224.771C30.3839 203.69 55.5813 175.146 100.856 144.829C103.187 143.358 105.638 142.088 108.184 141.031C113.535 138.669 119.317 137.439 125.166 137.417C126.37 137.427 127.569 137.556 128.747 137.802C130.429 138.158 132.018 138.859 133.415 139.86C134.406 140.594 135.285 141.468 136.025 142.454C136.546 143.12 136.979 143.851 137.313 144.629C138.459 148.024 138.218 151.733 136.644 154.952C135.429 157.737 133.866 160.357 131.993 162.749L66.0048 236.45L0 310.067V259.238V259.238Z" fill="#E9CF81"/>
<path d="M0 301.568C6.35787 297.686 13.1117 293.632 20.2615 289.404C27.4113 285.177 34.9516 280.81 42.8822 276.304C49.8176 272.397 56.9613 268.873 64.2814 265.746C74.6883 261.396 86.1993 257.899 92.4066 260.375C94.6916 261.261 96.7578 262.631 98.4633 264.391C99.1571 265.086 99.7588 265.868 100.254 266.717C100.871 267.893 101.284 269.166 101.475 270.481C101.601 271.289 101.651 272.107 101.626 272.924C101.473 276.747 100.014 280.402 97.493 283.28C95.5434 285.617 93.3378 287.727 90.9176 289.571C85.7309 293.737 74.6883 299.493 59.1283 306.135C43.5682 312.778 23.3903 320.307 0.0167476 328.037V301.568H0Z" fill="#E9CF81"/>
<path d="M213.032 354.315L200.112 354.654L187.192 354.994C184.734 355.058 182.291 354.605 180.02 353.664C177.749 352.723 175.701 351.315 174.009 349.531C172.318 347.747 171.021 345.628 170.202 343.31C169.382 340.992 169.06 338.528 169.255 336.077L172.795 291.974L176.322 247.87L196.781 247.321L217.239 246.773L223.575 290.537L229.911 334.235C230.264 336.684 230.094 339.179 229.414 341.558C228.734 343.936 227.558 346.144 225.964 348.035C224.37 349.927 222.393 351.46 220.164 352.533C217.936 353.606 215.505 354.196 213.032 354.262V354.315Z" fill="#F4ECE5"/>
<path d="M176.336 247.87L199.472 265.741L222.595 283.6L219.93 265.193L217.265 246.773L196.807 247.321L176.336 247.87Z" fill="#AD4D4D"/>
<path d="M284.453 245.074L199.903 247.321L115.354 249.568C114.116 249.596 112.918 249.134 112.02 248.283C111.122 247.431 110.597 246.259 110.559 245.022L110.468 241.652L110.389 238.294C109.827 217.144 117.69 196.637 132.247 181.283C146.805 165.929 166.865 156.987 188.015 156.423L197.473 156.175L206.944 155.926C228.095 155.364 248.602 163.227 263.956 177.784C279.309 192.342 288.252 212.402 288.816 233.552L288.907 236.909L288.999 240.28C289.027 241.517 288.565 242.715 287.713 243.614C286.862 244.512 285.69 245.037 284.453 245.074V245.074Z" fill="#F98638"/>
<path d="M190.314 215.145C189.881 215.145 189.465 214.973 189.159 214.667C188.853 214.36 188.681 213.945 188.681 213.512V160.786L169.686 175.679L150.691 190.533C150.522 190.664 150.329 190.76 150.123 190.816C149.917 190.872 149.701 190.887 149.489 190.859C149.275 190.839 149.068 190.773 148.882 190.668C148.695 190.562 148.532 190.418 148.405 190.245C148.269 190.079 148.169 189.886 148.11 189.679C148.052 189.473 148.036 189.256 148.065 189.043C148.091 188.831 148.158 188.626 148.264 188.44C148.369 188.254 148.51 188.09 148.679 187.959L167.883 172.896L187.087 157.873C187.456 157.474 187.932 157.191 188.459 157.059C188.986 156.927 189.539 156.951 190.053 157.128C190.6 157.314 191.076 157.666 191.415 158.134C191.754 158.602 191.94 159.163 191.947 159.741V213.473C191.947 213.906 191.775 214.321 191.469 214.627C191.162 214.934 190.747 215.106 190.314 215.106V215.145Z" fill="#AD4D4D"/>
<path d="M231.609 199.521C231.403 199.521 231.199 199.481 231.008 199.403C230.806 199.333 230.622 199.216 230.472 199.063L209.57 179.023L188.668 158.97L189.086 157.742L189.491 156.501L190.262 156.697L191.019 156.88L213.228 163.294L235.437 169.709C235.852 169.834 236.203 170.115 236.416 170.493C236.577 170.774 236.65 171.098 236.624 171.422C236.599 171.745 236.477 172.054 236.274 172.307C236.071 172.56 235.797 172.747 235.487 172.843C235.177 172.939 234.846 172.939 234.535 172.844L215.397 167.331L196.428 161.792L214.587 179.232L232.732 196.686C232.886 196.836 233.008 197.016 233.091 197.215C233.175 197.413 233.218 197.626 233.218 197.842C233.218 198.057 233.175 198.27 233.091 198.469C233.008 198.667 232.886 198.847 232.732 198.998C232.582 199.159 232.4 199.286 232.197 199.371C231.995 199.457 231.777 199.499 231.557 199.494L231.609 199.521Z" fill="#AD4D4D"/>
</svg>
